<?xml version="1.0" standalone="no"?>
<!DOCTYPE svg PUBLIC "-//W3C//DTD SVG 20010904//EN"
 "http://www.w3.org/TR/2001/REC-SVG-20010904/DTD/svg10.dtd">
<svg version="1.0" xmlns="http://www.w3.org/2000/svg"
 width="800.000000pt" height="184.000000pt" viewBox="0 0 800.000000 184.000000"
 preserveAspectRatio="xMidYMid meet">

<g transform="translate(0.000000,184.000000) scale(0.100000,-0.100000)"
fill="#000000" stroke="none">
<path d="M573 1355 c-179 -40 -301 -176 -326 -363 -9 -67 -7 -91 8 -153 23
-99 47 -142 111 -206 128 -129 333 -160 494 -77 118 61 203 195 217 341 l6 63
-217 0 -216 0 0 -70 0 -70 120 0 c66 0 120 -3 120 -7 0 -4 -11 -23 -25 -43
-56 -81 -211 -116 -308 -70 -118 55 -168 205 -117 344 66 174 312 207 424 56
l30 -40 89 0 c87 0 88 0 81 23 -25 80 -78 154 -147 201 -101 70 -231 96 -344
71z"/>
<path d="M1491 1354 c-211 -57 -344 -261 -311 -477 21 -145 113 -267 248 -330
63 -30 74 -32 182 -32 112 0 117 1 190 37 158 77 240 207 241 382 2 209 -119
369 -318 421 -71 19 -161 18 -232 -1z m238 -180 c63 -32 105 -85 127 -162 38
-128 -36 -280 -155 -320 -81 -28 -187 -10 -256 42 -69 53 -110 183 -86 273 44
162 220 241 370 167z"/>
<path d="M5763 1351 c-53 -14 -118 -58 -147 -100 -30 -43 -44 -129 -32 -195
15 -78 114 -148 254 -180 138 -31 172 -53 172 -111 0 -42 -16 -62 -65 -80 -84
-32 -164 -5 -194 66 l-16 39 -84 0 -84 0 6 -52 c18 -145 150 -236 331 -226
179 10 286 108 286 262 -1 112 -68 188 -203 229 -45 13 -108 32 -139 41 -57
17 -98 52 -98 83 0 8 13 28 29 44 26 25 37 29 88 29 68 0 99 -17 119 -66 l14
-34 85 0 c95 0 94 -2 71 74 -23 75 -60 122 -119 153 -44 23 -66 27 -147 29
-52 2 -109 -1 -127 -5z"/>
<path d="M2120 1270 l0 -79 113 -3 112 -3 3 -327 2 -328 85 0 85 0 0 330 0
330 115 0 115 0 0 80 0 80 -315 0 -315 0 0 -80z"/>
<path d="M3095 1323 c-6 -24 -114 -305 -261 -678 -23 -60 -39 -114 -35 -118 4
-4 45 -7 91 -5 l83 3 27 75 27 75 166 3 165 2 18 -47 c9 -27 23 -63 30 -80
l13 -33 90 0 c50 0 91 4 91 8 0 5 -45 121 -100 258 -55 137 -129 320 -163 406
l-62 158 -86 0 c-86 0 -87 0 -94 -27z m154 -342 c27 -74 48 -138 45 -143 -3
-4 -50 -8 -106 -8 l-100 0 6 28 c6 23 45 131 85 236 7 16 13 27 15 25 3 -2 27
-64 55 -138z"/>
<path d="M3712 938 l3 -413 80 0 80 0 3 253 c1 138 6 252 10 252 4 -1 35 -40
69 -88 34 -48 117 -162 183 -254 l122 -168 69 0 69 0 0 415 0 416 -82 -3 -83
-3 -5 -248 -5 -248 -125 176 c-69 97 -149 210 -179 251 l-54 74 -79 0 -78 0 2
-412z"/>
<path d="M4595 1337 c-3 -6 -4 -192 -3 -412 l3 -400 85 0 85 0 3 413 2 412
-85 0 c-59 0 -87 -4 -90 -13z"/>
<path d="M4960 935 l0 -415 248 2 247 3 0 80 0 80 -162 3 -163 2 0 85 0 85
145 0 146 0 -3 78 -3 77 -143 3 -143 3 3 82 3 82 158 3 157 3 0 79 0 80 -245
0 -245 0 0 -415z"/>
<path d="M6340 935 l0 -415 85 0 85 0 2 202 3 202 114 -159 c63 -88 130 -179
148 -202 l34 -43 94 0 c52 0 96 3 99 8 4 6 -114 176 -264 380 -37 51 -51 20
122 264 65 91 118 169 118 172 0 3 -44 6 -99 6 l-98 0 -129 -185 c-71 -102
-132 -185 -136 -185 -5 0 -8 83 -8 185 l0 185 -85 0 -85 0 0 -415z"/>
<path d="M7102 1043 l3 -308 27 -50 c57 -107 155 -166 288 -173 69 -3 95 0
141 17 72 27 142 89 177 155 l27 51 3 308 3 307 -85 0 -85 0 -3 -282 c-3 -277
-4 -284 -26 -321 -13 -21 -37 -44 -54 -53 -33 -17 -111 -20 -148 -6 -38 15
-79 60 -90 101 -5 20 -10 153 -10 299 l0 262 -86 0 -85 0 3 -307z"/>
</g>
</svg>
